#!OML:ASF H:\BreakDance\Project 1\Capture day 1\Session 1\Male.ASF
:FULLY-SPECIFIED
:DEGREES
30
root 12.8851 15.9814 1.52245 -87.4925 -88.4711 84.941
lowerback -6.53108 0.412688 0.646873
upperback 4.0018 0.607773 -2.17016
thorax 7.91157 0.3828 -2.5734
lowerneck -4.50357 -0.376505 -1.93607
upperneck 4.28346 -0.428666 0.974972
head 2.1228 -0.22083 0.625215
rclavicle 5.14355e-015 -6.36111e-015
rhumerus -31.7357 5.82456 -88.9957
rradius 52.9579
rwrist 12.583
rhand -34.3587 -28.7889
rfingers 7.12502
rthumb -7.52577 -58.635
lclavicle 5.14355e-015 -6.36111e-015
lhumerus -28.9592 -6.18309 83.8725
lradius 57.5854
lwrist -9.83223
lhand -27.1666 -23.7571
lfingers 7.12502
lthumb -0.580951 6.22187
rfemur -11.2877 5.27392 12.1225
rtibia 43.908
rfoot -27.4382 -21.0817
rtoes -5.27965
lfemur -14.3062 2.29841 -12.7379
ltibia 42.2889
lfoot -30.7514 17.4476
ltoes -25.8841
31
root 12.8831 15.9803 1.52132 -84.7224 -88.4535 82.1332
lowerback -6.51573 0.432752 0.646937
upperback 3.99558 0.636684 -2.20563
thorax 7.89803 0.397735 -2.60708
lowerneck -4.44496 -0.420018 -1.85661
upperneck 4.34422 -0.493088 0.963152
head 2.13258 -0.252405 0.605858
rclavicle 2.73329e-016 3.18055e-015
rhumerus -31.8038 5.6992 -89.0145
rradius 52.8836
rwrist 12.61
rhand -34.433 -28.5817
rfingers 7.12502
rthumb -7.59753 -58.4253
lclavicle 2.73329e-016 3.18055e-015
lhumerus -28.9958 -6.26538 83.8197
lradius 57.4429
lwrist -9.97429
lhand -26.9863 -23.6766
lfingers 7.12502
lthumb -0.406883 6.30279
rfemur -11.2022 5.2266 12.1169
rtibia 43.8872
rfoot -27.4287 -21.1141
rtoes -5.42164
lfemur -14.2836 2.28348 -12.7424
ltibia 42.313
lfoot -30.7497 17.3846
ltoes -25.8523
32
root 12.8809 15.9793 1.51976 -81.9766 -88.4269 79.3462
lowerback -6.50772 0.446184 0.629293
upperback 4.0125 0.657959 -2.23346
thorax 7.91294 0.408016 -2.62395
lowerneck -4.46715 -0.469677 -1.80816
upperneck 4.4245 -0.562711 0.962751
head 2.1638 -0.286599 0.595432
rclavicle -1.86361e-015 -1.43125e-014
rhumerus -31.8191 5.56681 -89.0162
rradius 52.7747
rwrist 12.7365
rhand -34.5131 -28.2418
rfingers 7.12502
rthumb -7.67483 -58.0825
lclavicle -1.86361e-015 -1.43125e-014
lhumerus -28.9772 -6.33678 83.7699
lradius 57.2892
lwrist -10.082
lhand -26.8158 -23.5689
lfingers 7.12502
lthumb -0.242148 6.41075
rfemur -11.1116 5.18314 12.1093
rtibia 43.8675
rfoot -27.4256 -21.1493
rtoes -5.55689
lfemur -14.253 2.25702 -12.7514
ltibia 42.3337
lfoot -30.7604 17.3117
ltoes -25.7834
33
root 12.8787 15.9783 1.51759 -79.5422 -88.4119 76.8673
lowerback -6.5033 0.49073 0.655728
upperback 4.02744 0.71866 -2.29351
thorax 7.93122 0.440912 -2.6946
lowerneck -4.46578 -0.544086 -1.69955
upperneck 4.49961 -0.670889 0.981408
head 2.18933 -0.338435 0.579373
rclavicle -3.55328e-015 2.74323e-014
rhumerus -31.853 5.29873 -89.0419
rradius 52.6467
rwrist 12.9714
rhand -34.5736 -27.8274
rfingers 7.12502
rthumb -7.73323 -57.666
lclavicle -3.55328e-015 2.74323e-014
lhumerus -28.9439 -6.54067 83.6898
lradius 57.1265
lwrist -10.1025
lhand -26.6766 -23.4668
lfingers 7.12502
lthumb -0.107707 6.51287
rfemur -11.0206 5.17472 12.1264
rtibia 43.8488
rfoot -27.4426 -21.1979
rtoes -5.61485
lfemur -14.2146 2.21856 -12.7444
ltibia 42.3521
lfoot -30.785 17.2458
ltoes -25.7046
34
root 12.8765 15.9773 1.51486 -77.4736 -88.419 74.7527
lowerback -6.50447 0.51907 0.669424
upperback 4.06804 0.75691 -2.32023
thorax 7.9785 0.461547 -2.72598
lowerneck -4.55149 -0.59882 -1.62807
upperneck 4.59802 -0.749256 1.00463
head 2.23827 -0.375677 0.572118
rclavicle 1.83876e-015 -3.97569e-015
rhumerus -31.8254 5.09274 -89.042
rradius 52.4954
rwrist 13.25
rhand -34.5977 -27.404
rfingers 7.12502
rthumb -7.75651 -57.2417
lclavicle 1.83876e-015 -3.97569e-015
lhumerus -28.8668 -6.68603 83.6203
lradius 56.9596
lwrist -10.0585
lhand -26.5699 -23.3841
lfingers 7.12502
lthumb -0.00465427 6.59566
rfemur -10.9326 5.21032 12.1785
rtibia 43.8301
rfoot -27.4793 -21.2664
rtoes -5.6
lfemur -14.1708 2.16665 -12.7135
ltibia 42.3699
lfoot -30.8174 17.2073
ltoes -25.6536
35
root 12.8747 15.9766 1.51173 -75.7688 -88.449 73.009
lowerback -6.50747 0.575349 0.729671
upperback 4.09963 0.829552 -2.37002
thorax 8.02048 0.502211 -2.80342
lowerneck -4.61691 -0.6588 -1.4923
upperneck 4.70938 -0.841234 1.05297
head 2.28776 -0.417852 0.561245
rclavicle 6.83322e-015 -2.5842e-014
rhumerus -31.8219 4.79447 -89.0649
rradius 52.3503
rwrist 13.5447
rhand -34.5985 -27.043
rfingers 7.12502
rthumb -7.7573 -56.8807
lclavicle 6.83322e-015 -2.5842e-014
lhumerus -28.7991 -6.93578 83.5222
lradius 56.8018
lwrist -9.95054
lhand -26.4828 -23.3493
lfingers 7.12502
lthumb 0.0794519 6.63038
rfemur -10.859 5.28686 12.2619
rtibia 43.8107
rfoot -27.5292 -21.3521
rtoes -5.52996
lfemur -14.1335 2.1063 -12.6608
ltibia 42.3885
lfoot -30.8492 17.205
ltoes -25.6539
36
root 12.8734 15.9766 1.50833 -74.4169 -88.4941 71.6381
lowerback -6.51736 0.602092 0.752573
upperback 4.14123 0.863233 -2.36928
thorax 8.07349 0.520532 -2.81144
lowerneck -4.76434 -0.681863 -1.43026
upperneck 4.85276 -0.878583 1.10752
head 2.36289 -0.433632 0.566837
rclavicle 5.64051e-015 3.97569e-016
rhumerus -31.7694 4.64036 -89.0508
rradius 52.215
rwrist 13.7641
rhand -34.5784 -26.8119
rfingers 7.12502
rthumb -7.73787 -56.6503
lclavicle 5.64051e-015 3.97569e-016
lhumerus -28.7154 -7.05839 83.4512
lradius 56.651
lwrist -9.8299
lhand -26.4056 -23.3939
lfingers 7.12502
lthumb 0.153966 6.58578
rfemur -10.8147 5.38761 12.3618
rtibia 43.7913
rfoot -27.5823 -21.4413
rtoes -5.42177
lfemur -14.1185 2.04408 -12.5969
ltibia 42.4073
lfoot -30.8758 17.2332
ltoes -25.6941
37
root 12.8728 15.9771 1.50479 -73.1513 -88.5439 70.3762
lowerback -6.52987 0.654231 0.809367
upperback 4.1549 0.929401 -2.39587
thorax 8.10114 0.557162 -2.86292
lowerneck -4.84967 -0.713829 -1.31063
upperneck 4.98725 -0.93456 1.18135
head 2.4238 -0.457092 0.567947
rclavicle 8.00108e-015 -2.10712e-014
rhumerus -31.766 4.41671 -89.0635
rradius 52.1147
rwrist 13.9029
rhand -34.5338 -26.7502
rfingers 7.12502
rthumb -7.6948 -56.5902
lclavicle 8.00108e-015 -2.10712e-014
lhumerus -28.6621 -7.27636 83.359
lradius 56.5111
lwrist -9.68921
lhand -26.3357 -23.4825
lfingers 7.12502
lthumb 0.221478 6.4971
rfemur -10.801 5.48112 12.4622
rtibia 43.7742
rfoot -27.6285 -21.5179
rtoes -5.32422
lfemur -14.1306 1.9847 -12.5306
ltibia 42.4242
lfoot -30.8923 17.2826
ltoes -25.773
38
root 12.8724 15.9779 1.5011 -71.6232 -88.5885 68.8711
lowerback -6.55441 0.646216 0.784678
upperback 4.18722 0.918506 -2.35036
thorax 8.14821 0.549732 -2.80237
lowerneck -5.03987 -0.698086 -1.32538
upperneck 5.13709 -0.91591 1.2532
head 2.50948 -0.445456 0.59432
rclavicle 1.09332e-015 -2.78299e-015
rhumerus -31.6821 4.43651 -89.028
rradius 52.0273
rwrist 13.9147
rhand -34.4623 -26.8616
rfingers 7.12502
rthumb -7.62582 -56.7042
lclavicle 1.09332e-015 -2.78299e-015
lhumerus -28.5897 -7.26804 83.3171
lradius 56.3879
lwrist -9.58878
lhand -26.2934 -23.5719
lfingers 7.12502
lthumb 0.262408 6.40766
rfemur -10.8118 5.53603 12.5503
rtibia 43.7621
rfoot -27.6637 -21.566
rtoes -5.25955
lfemur -14.1645 1.9306 -12.4674
ltibia 42.4361
lfoot -30.902 17.3298
ltoes -25.8557
39
root 12.872 15.9788 1.4973 -69.746 -88.6101 67.03
lowerback -6.58297 0.652557 0.772502
upperback 4.19062 0.927914 -2.34086
thorax 8.16867 0.553627 -2.78409
lowerneck -5.12833 -0.697609 -1.30534
upperneck 5.24578 -0.923071 1.34937
head 2.56308 -0.445487 0.621596
rclavicle -1.39149e-015 3.97569e-015
rhumerus -31.656 4.391 -89.0292
rradius 51.9683
rwrist 13.8745
rhand -34.3763 -27.0497
rfingers 7.12502
rthumb -7.54276 -56.8952
lclavicle -1.39149e-015 3.97569e-015
lhumerus -28.5736 -7.33791 83.2574
lradius 56.2993
lwrist -9.50252
lhand -26.2795 -23.612
lfingers 7.12502
lthumb 0.275835 6.36754
rfemur -10.8387 5.52674 12.6052
rtibia 43.756
rfoot -27.6735 -21.5817
rtoes -5.28385
lfemur -14.2113 1.8815 -12.423
ltibia 42.442
lfoot -30.9107 17.3578
ltoes -25.9072
40
root 12.8713 15.9793 1.4934 -67.5595 -88.6082 64.8839
lowerback -6.61528 0.630325 0.716001
upperback 4.20058 0.902278 -2.31365
thorax 8.19515 0.537402 -2.72682
lowerneck -5.23195 -0.685546 -1.33927
upperneck 5.3336 -0.910376 1.44706
head 2.61281 -0.436458 0.65953
rclavicle 2.36057e-015 2.78299e-015
rhumerus -31.6034 4.43519 -89.0216
rradius 51.9132
rwrist 13.8056
rhand -34.2953 -27.2182
rfingers 7.12502
rthumb -7.46464 -57.0665
lclavicle 2.36057e-015 2.78299e-015
lhumerus -28.5587 -7.31797 83.2156
lradius 56.2332
lwrist -9.45543
lhand -26.3089 -23.5947
lfingers 7.12502
lthumb 0.247388 6.38491
rfemur -10.8702 5.45489 12.6289
rtibia 43.7541
rfoot -27.6505 -21.578
rtoes -5.4382
lfemur -14.2617 1.83496 -12.3966
ltibia 42.4429
lfoot -30.9206 17.3734
ltoes -25.9565
41
root 12.87 15.9796 1.48944 -65.1804 -88.6002 62.541
lowerback -6.64119 0.621204 0.682991
upperback 4.19425 0.893584 -2.31375
thorax 8.20236 0.531355 -2.70938
lowerneck -5.25791 -0.690414 -1.32581
upperneck 5.39113 -0.92476 1.54264
head 2.63797 -0.440285 0.68752
rclavicle 4.91992e-015 -8.34896e-015
rhumerus -31.5976 4.41355 -89.0419
rradius 51.8728
rwrist 13.7515
rhand -34.2243 -27.343
rfingers 7.12502
rthumb -7.39612 -57.1937
lclavicle 4.91992e-015 -8.34896e-015
lhumerus -28.5803 -7.3663 83.1573
lradius 56.1885
lwrist -9.41017
lhand -26.3879 -23.5419
lfingers 7.12502
lthumb 0.171143 6.43776
rfemur -10.8961 5.34372 12.6441
rtibia 43.7537
rfoot -27.6071 -21.5595
rtoes -5.65006
lfemur -14.3051 1.78562 -12.3704
ltibia 42.4416
lfoot -30.9387 17.3759
ltoes -25.9932
42
root 12.8682 15.9794 1.48555 -62.8173 -88.5956 60.2036
lowerback -6.65885 0.601549 0.644501
upperback 4.19225 0.870435 -2.30104
thorax 8.20826 0.517554 -2.67728
lowerneck -5.2786 -0.690768 -1.32059
upperneck 5.44108 -0.931241 1.61857
head 2.65941 -0.440957 0.710946
rclavicle 3.2054e-015 -2.34566e-014
rhumerus -31.5893 4.42434 -89.0529
rradius 51.8398
rwrist 13.7057
rhand -34.156 -27.4257
rfingers 7.12502
rthumb -7.33012 -57.2788
lclavicle 3.2054e-015 -2.34566e-014
lhumerus -28.6109 -7.3747 83.1088
lradius 56.1572
lwrist -9.37226
lhand -26.4849 -23.48
lfingers 7.12502
lthumb 0.0774178 6.49975
rfemur -10.9098 5.21317 12.6606
rtibia 43.7523
rfoot -27.5502 -21.5282
rtoes -5.87964
lfemur -14.3333 1.72962 -12.3384
ltibia 42.44
lfoot -30.9576 17.3656
ltoes -25.9818
43
root 12.8663 15.9789 1.48182 -60.8015 -88.5935 58.2051
lowerback -6.66322 0.611441 0.6444
upperback 4.17062 0.884899 -2.31868
thorax 8.1886 0.524936 -2.69375
lowerneck -5.21592 -0.710162 -1.25801
upperneck 5.48068 -0.969158 1.69911
head 2.66186 -0.45639 0.724618
rclavicle -4.39811e-015 1.11319e-014
rhumerus -31.6424 4.32687 -89.0799
rradius 51.8238
rwrist 13.69
rhand -34.1042 -27.4743
rfingers 7.12502
rthumb -7.28018 -57.3291
lclavicle -4.39811e-015 1.11319e-014
lhumerus -28.6731 -7.48183 83.0455
lradius 56.1335
lwrist -9.33382
lhand -26.5627 -23.4208
lfingers 7.12502
lthumb 0.00227198 6.55891
rfemur -10.9155 5.0842 12.6752
rtibia 43.7493
rfoot -27.49 -21.4892
rtoes -6.10632
lfemur -14.3497 1.67182 -12.3074
ltibia 42.439
lfoot -30.9604 17.3676
ltoes -25.9588
